<svg width="36" height="34" viewBox="0 0 36 34" fill="none" xmlns="http://www.w3.org/2000/svg">
<path d="M12.4037 26.6191C12.4037 26.7559 12.2421 26.8652 12.0383 26.8652C11.8064 26.8857 11.6448 26.7764 11.6448 26.6191C11.6448 26.4824 11.8064 26.3731 12.0102 26.3731C12.221 26.3525 12.4037 26.4619 12.4037 26.6191ZM10.2183 26.3115C10.1691 26.4482 10.3097 26.6055 10.5205 26.6465C10.7032 26.7148 10.914 26.6465 10.9562 26.5098C10.9983 26.3731 10.8648 26.2158 10.654 26.1543C10.4713 26.1064 10.2675 26.1748 10.2183 26.3115ZM13.3243 26.1953C13.1205 26.2432 12.9799 26.3731 13.001 26.5303C13.0221 26.667 13.2048 26.7559 13.4156 26.708C13.6194 26.6602 13.7599 26.5303 13.7389 26.3936C13.7178 26.2637 13.5281 26.1748 13.3243 26.1953ZM17.9481 0C8.20155 0 0.74585 7.19824 0.74585 16.6797C0.74585 24.2607 5.65073 30.7481 12.6567 33.0313C13.5562 33.1885 13.8724 32.6484 13.8724 32.2041C13.8724 31.7803 13.8513 29.4424 13.8513 28.0068C13.8513 28.0068 8.93236 29.0322 7.89939 25.9697C7.89939 25.9697 7.0983 23.9805 5.94587 23.4678C5.94587 23.4678 4.33667 22.3945 6.0583 22.415C6.0583 22.415 7.80804 22.5518 8.77074 24.1787C10.3097 26.8174 12.8886 26.0586 13.8935 25.6074C14.0551 24.5137 14.5118 23.7549 15.0178 23.3037C11.0897 22.8799 7.12641 22.3262 7.12641 15.75C7.12641 13.8701 7.66047 12.9268 8.78479 11.7236C8.60209 11.2793 8.00479 9.44727 8.9675 7.08203C10.4362 6.6377 13.8162 8.92774 13.8162 8.92774C15.2216 8.54492 16.7324 8.34668 18.2292 8.34668C19.7259 8.34668 21.2367 8.54492 22.6421 8.92774C22.6421 8.92774 26.0222 6.63086 27.4908 7.08203C28.4535 9.4541 27.8562 11.2793 27.6735 11.7236C28.7978 12.9336 29.4865 13.877 29.4865 15.75C29.4865 22.3467 25.3476 22.873 21.4194 23.3037C22.0659 23.8438 22.614 24.8691 22.614 26.4756C22.614 28.7793 22.5929 31.6299 22.5929 32.1904C22.5929 32.6348 22.9162 33.1748 23.8086 33.0176C30.8357 30.7481 35.6 24.2607 35.6 16.6797C35.6 7.19824 27.6946 0 17.9481 0ZM7.57614 23.5772C7.48479 23.6455 7.50587 23.8027 7.62533 23.9326C7.73776 24.042 7.89939 24.0898 7.99074 24.001C8.08209 23.9326 8.06101 23.7754 7.94155 23.6455C7.82912 23.5361 7.66749 23.4883 7.57614 23.5772ZM6.81722 23.0234C6.76803 23.1123 6.8383 23.2217 6.97884 23.29C7.09128 23.3584 7.23182 23.3379 7.28101 23.2422C7.3302 23.1533 7.25992 23.0439 7.11938 22.9756C6.97884 22.9346 6.86641 22.9551 6.81722 23.0234ZM9.09398 25.457C8.98155 25.5459 9.02372 25.751 9.18534 25.8809C9.34696 26.0381 9.55074 26.0586 9.6421 25.9492C9.73345 25.8604 9.69128 25.6553 9.55074 25.5254C9.39615 25.3682 9.18534 25.3477 9.09398 25.457ZM8.2929 24.4522C8.18047 24.5205 8.18047 24.6982 8.2929 24.8555C8.40533 25.0127 8.59506 25.0811 8.68642 25.0127C8.79885 24.9238 8.79885 24.7461 8.68642 24.5889C8.58804 24.4316 8.40533 24.3633 8.2929 24.4522Z" fill="#DA0606"/>
</svg>
